#!OML:ASF F:\VICON\USERDATA\INSTALL\rory3\rory3.ASF
:FULLY-SPECIFIED
:DEGREES
1233
root -2.85833 18.5794 -3.52938 -1.53557 4.78265 3.80352
lowerback 10.5727 2.19355 2.25058
upperback 1.49259 3.22117 1.07143
thorax -4.30249 1.56507 -0.601709
lowerneck -13.8197 -1.14936 -4.02241
upperneck 2.77116 -1.1748 4.93164
head 3.46279 -0.410145 2.30168
rclavicle -1.44119e-014 -1.59028e-014
rhumerus -4.43517 -2.51138 -51.0595
rradius 124.705
rwrist -52.5419
rhand -15.4421 7.10207
rfingers 7.12502
rthumb 10.7384 -22.6035
lclavicle -1.44119e-014 -1.59028e-014
lhumerus -26.955 17.3043 37.8992
lradius 97.1939
lwrist 18.3147
lhand -31.2093 14.3386
lfingers 7.12502
lthumb -4.48525 44.2712
rfemur -8.0216 10.9143 18.0247
rtibia 31.9566
rfoot -22.7736 -23.3451
rtoes 0.836247
lfemur -21.3827 3.74921 -15.1805
ltibia 50.026
lfoot -8.72231 0.782264
ltoes -10.1185
1234
root -2.80312 18.575 -3.49104 -1.5821 4.96793 3.79026
lowerback 10.0926 2.11157 2.01806
upperback 1.35322 3.075 1.05011
thorax -4.19575 1.49748 -0.456979
lowerneck -13.9455 -1.24104 -3.94161
upperneck 3.59562 -1.34423 5.17446
head 3.37818 -0.464396 2.12946
rclavicle 5.26779e-014 -2.38542e-015
rhumerus -5.70323 -1.203 -50.0105
rradius 123.349
rwrist -51.5685
rhand -15.3376 7.32003
rfingers 7.12502
rthumb 10.8392 -22.3803
lclavicle 5.26779e-014 -2.38542e-015
lhumerus -25.6751 16.5783 38.3241
lradius 98.1363
lwrist 18.6058
lhand -31.0477 13.8973
lfingers 7.12502
lthumb -4.32916 43.833
rfemur -7.69981 10.8869 17.9009
rtibia 31.8629
rfoot -22.9675 -23.3734
rtoes 0.71654
lfemur -19.8165 3.44422 -15.3609
ltibia 47.6952
lfoot -8.40977 1.35747
ltoes -9.70621
1235
root -2.74397 18.5709 -3.45771 -1.59349 5.17019 3.54663
lowerback 9.66867 1.99294 2.08605
upperback 1.13858 2.91773 1.04749
thorax -4.18318 1.41795 -0.464955
lowerneck -13.7121 -1.28089 -3.94256
upperneck 3.85058 -1.42976 5.38051
head 3.42537 -0.498369 2.18767
rclavicle -1.38155e-014 3.97569e-015
rhumerus -7.00982 0.151922 -49.0743
rradius 121.981
rwrist -50.644
rhand -15.2215 7.47588
rfingers 7.12502
rthumb 10.9511 -22.2185
lclavicle -1.38155e-014 3.97569e-015
lhumerus -24.3671 15.9177 38.6671
lradius 99.0782
lwrist 19.1474
lhand -30.8719 13.4737
lfingers 7.12502
lthumb -4.15947 43.4128
rfemur -7.47839 10.7898 18.0107
rtibia 31.78
rfoot -23.0379 -23.5038
rtoes 0.111973
lfemur -18.3854 3.06364 -15.3054
ltibia 45.454
lfoot -7.85654 2.014
ltoes -10.055
1236
root -2.68324 18.5667 -3.425 -1.65933 5.32648 3.25628
lowerback 9.25114 1.84651 2.18882
upperback 1.02658 2.72487 1.06259
thorax -4.06704 1.32211 -0.468905
lowerneck -13.5951 -1.25934 -3.97364
upperneck 3.98484 -1.42408 5.63434
head 3.45056 -0.484164 2.27166
rclavicle -3.21037e-014 -2.78299e-014
rhumerus -8.11639 1.47425 -48.3203
rradius 120.539
rwrist -49.6578
rhand -14.9341 7.45008
rfingers 7.12502
rthumb 11.2283 -22.2294
lclavicle -3.21037e-014 -2.78299e-014
lhumerus -23.0018 15.4439 38.9909
lradius 100.098
lwrist 19.9644
lhand -31.2723 13.1569
lfingers 7.12502
lthumb -4.54612 43.0882
rfemur -7.20069 10.6494 18.1648
rtibia 31.7108
rfoot -23.1398 -23.5324
rtoes -0.167038
lfemur -16.925 2.62514 -15.2117
ltibia 43.332
lfoot -7.25841 2.75357
ltoes -10.2968
1237
root -2.62097 18.5586 -3.39187 -1.75618 5.46095 2.98824
lowerback 8.87106 1.71571 2.21644
upperback 0.921844 2.54663 1.10591
thorax -3.96862 1.23462 -0.406444
lowerneck -13.6098 -1.248 -3.93358
upperneck 4.30401 -1.43867 5.76502
head 3.55219 -0.481694 2.30513
rclavicle -3.38928e-014 -1.35174e-014
rhumerus -9.25121 2.81155 -47.5969
rradius 119.045
rwrist -48.4633
rhand -14.5412 7.05545
rfingers 7.12502
rthumb 11.6072 -22.6031
lclavicle -3.38928e-014 -1.35174e-014
lhumerus -21.6464 15.054 39.3042
lradius 101.11
lwrist 20.4407
lhand -31.3838 12.9879
lfingers 7.12502
lthumb -4.65376 42.9167
rfemur -6.87107 10.5979 18.3017
rtibia 31.6298
rfoot -23.2888 -23.541
rtoes 0.0244238
lfemur -15.489 2.15066 -15.1813
ltibia 41.3785
lfoot -8.5485 3.19482
ltoes -15.6735
1238
root -2.55552 18.553 -3.36098 -1.85142 5.68344 2.93109
lowerback 8.54251 1.58922 2.04815
upperback 0.785419 2.35559 1.10243
thorax -3.93755 1.14258 -0.285139
lowerneck -13.5639 -1.27938 -3.95157
upperneck 4.73377 -1.5103 5.92779
head 3.68164 -0.506565 2.35429
rclavicle -1.635e-014 -3.97569e-015
rhumerus -10.4057 4.16337 -46.8976
rradius 117.445
rwrist -47.271
rhand -14.7047 7.17793
rfingers 7.12502
rthumb 11.4496 -22.4894
lclavicle -1.635e-014 -3.97569e-015
lhumerus -20.239 14.8147 39.6547
lradius 102.04
lwrist 20.3369
lhand -30.8775 13.2115
lfingers 7.12502
lthumb -4.16481 43.1505
rfemur -6.53175 10.5376 18.1916
rtibia 31.519
rfoot -23.4484 -23.5925
rtoes 0.0746198
lfemur -14.1315 1.68823 -15.4467
ltibia 39.6268
lfoot -9.93064 3.77515
ltoes -13.8133
1239
root -2.48833 18.5519 -3.33225 -1.89829 5.82423 2.94828
lowerback 8.26185 1.49191 1.83859
upperback 0.614666 2.20039 1.0503
thorax -3.96656 1.06786 -0.198272
lowerneck -13.4313 -1.31884 -4.05583
upperneck 5.01686 -1.58514 6.20751
head 3.75477 -0.530584 2.45319
rclavicle 1.42628e-014 3.97569e-015
rhumerus -11.5692 5.50529 -46.3351
rradius 115.838
rwrist -46.2584
rhand -14.9561 7.38503
rfingers 7.12502
rthumb 11.2071 -22.2956
lclavicle 1.42628e-014 3.97569e-015
lhumerus -18.7871 14.5961 39.9732
lradius 102.934
lwrist 20.2903
lhand -30.448 13.149
lfingers 7.12502
lthumb -3.75009 43.0958
rfemur -6.28577 10.4379 17.9573
rtibia 31.3775
rfoot -23.4119 -23.6709
rtoes -0.339678
lfemur -12.938 1.33516 -15.804
ltibia 38.1048
lfoot -11.0881 4.29018
ltoes -13.2887
1240
root -2.42004 18.5503 -3.30617 -1.9916 5.91975 2.7583
lowerback 8.06376 1.37819 1.82227
upperback 0.460313 2.04539 1.04455
thorax -4.0187 0.990223 -0.174377
lowerneck -13.3954 -1.31703 -4.04016
upperneck 5.27913 -1.6174 6.42468
head 3.8334 -0.532695 2.51639
rclavicle -2.79789e-014 6.36111e-015
rhumerus -12.7631 6.86295 -45.8936
rradius 114.213
rwrist -45.3102
rhand -14.6706 7.77131
rfingers 7.12502
rthumb 11.4825 -21.8942
lclavicle -2.79789e-014 6.36111e-015
lhumerus -17.3433 14.3386 40.206
lradius 103.864
lwrist 20.5763
lhand -30.7076 12.7956
lfingers 7.12502
lthumb -4.00078 42.7378
rfemur -6.04865 10.2671 17.9467
rtibia 31.2806
rfoot -23.1622 -23.7607
rtoes -1.00036
lfemur -11.9078 1.05374 -15.9082
ltibia 36.7924
lfoot -11.9492 4.52676
ltoes -13.9766
1241
root -2.34919 18.5464 -3.28303 -2.15554 6.08935 2.48094
lowerback 7.84146 1.23815 1.89098
upperback 0.388382 1.86237 1.0815
thorax -3.9706 0.898853 -0.149561
lowerneck -13.4507 -1.33992 -4.03268
upperneck 5.57555 -1.67966 6.62326
head 3.93871 -0.548463 2.57323
rclavicle 2.82771e-014 9.54166e-015
rhumerus -13.8034 8.12615 -45.4819
rradius 112.472
rwrist -44.5714
rhand -14.7861 8.07941
rfingers 7.12502
rthumb 11.3711 -21.5923
lclavicle 2.82771e-014 9.54166e-015
lhumerus -15.8224 14.1728 40.5145
lradius 104.812
lwrist 21.0021
lhand -31.1798 12.3047
lfingers 7.12502
lthumb -4.45677 42.2378
rfemur -5.7279 10.1624 18.0407
rtibia 31.2734
rfoot -23.1739 -23.6953
rtoes -1.47257
lfemur -10.9519 0.753935 -15.9377
ltibia 35.6276
lfoot -12.7344 4.73445
ltoes -13.9437
1242
root -2.27768 18.5374 -3.2645 -2.25691 6.31366 2.30324
lowerback 7.52192 1.1003 1.79747
upperback 0.355596 1.66486 1.1315
thorax -3.83256 0.804285 -0.017142
lowerneck -13.4732 -1.38339 -4.03917
upperneck 5.80265 -1.75904 6.75055
head 4.0179 -0.577869 2.60875
rclavicle -5.96354e-015 -1.51076e-014
rhumerus -14.6094 9.14121 -45.1392
rradius 110.734
rwrist -43.8597
rhand -15.2241 7.89254
rfingers 7.12502
rthumb 10.9486 -21.802
lclavicle -5.96354e-015 -1.51076e-014
lhumerus -14.2219 14.1951 40.95
lradius 105.764
lwrist 21.2275
lhand -31.2945 12.1913
lfingers 7.12502
lthumb -4.56754 42.122
rfemur -5.51862 10.1405 17.9982
rtibia 31.3931
rfoot -23.3582 -23.5319
rtoes -1.46186
lfemur -10.0987 0.442582 -16.13
ltibia 34.5601
lfoot -13.4927 5.15337
ltoes -13.2001
1243
root -2.20923 18.5317 -3.24861 -2.30801 6.55055 2.35516
lowerback 7.24712 0.968879 1.42872
upperback 0.302114 1.45313 1.12758
thorax -3.7454 0.706229 0.212612
lowerneck -13.39 -1.43512 -4.00748
upperneck 5.91785 -1.84698 6.80254
head 4.04509 -0.617758 2.61361
rclavicle 2.44754e-015 -6.36111e-015
rhumerus -15.4973 10.0895 -44.9279
rradius 109.139
rwrist -43.0333
rhand -15.2831 7.69918
rfingers 7.12502
rthumb 10.8917 -21.9984
lclavicle 2.44754e-015 -6.36111e-015
lhumerus -12.4944 14.3336 41.4841
lradius 106.578
lwrist 21.1565
lhand -31.3358 12.4612
lfingers 7.12502
lthumb -4.60739 42.3911
rfemur -5.43983 10.1622 17.6923
rtibia 31.675
rfoot -23.5629 -23.3664
rtoes -1.20883
lfemur -9.3608 0.128873 -16.5626
ltibia 33.5518
lfoot -14.2066 5.64274
ltoes -11.6591
1244
root -2.14137 18.5288 -3.23742 -2.42624 6.84474 2.47327
lowerback 7.15559 0.808894 1.02029
upperback 0.217656 1.20358 1.06132
thorax -3.78979 0.588648 0.399755
lowerneck -13.227 -1.46661 -3.99007
upperneck 6.0109 -1.91989 6.99749
head 4.05384 -0.644059 2.66636
rclavicle 4.82053e-015 -1.59028e-015
rhumerus -16.6048 11.0243 -44.8621
rradius 107.647
rwrist -42.3612
rhand -15.2178 6.92561
rfingers 7.12502
rthumb 10.9547 -22.7686
lclavicle 4.82053e-015 -1.59028e-015
lhumerus -10.8041 14.4867 42.0228
lradius 107.324
lwrist 21.0326
lhand -31.5962 12.2899
lfingers 7.12502
lthumb -4.85884 42.2142
rfemur -5.36361 10.1325 17.3105
rtibia 32.1081
rfoot -23.7119 -23.1851
rtoes -1.37586
lfemur -8.67249 -0.0943335 -17.0333
ltibia 32.6251
lfoot -14.7761 5.93765
ltoes -9.88004
